<svg width="173" height="41" viewBox="0 0 173 41" fill="none" xmlns="http://www.w3.org/2000/svg">
<path d="M9.4 30.28C7.58667 30.28 6 29.96 4.64 29.32C3.28 28.68 2.21333 27.8133 1.44 26.72C0.693333 25.6267 0.266667 24.4133 0.16 23.08H2.04C2.25333 24.5467 2.93333 25.8533 4.08 27C5.25333 28.1467 7.02667 28.72 9.4 28.72C10.7867 28.72 11.9867 28.4667 13 27.96C14.04 27.4533 14.84 26.76 15.4 25.88C15.96 25 16.24 24.0267 16.24 22.96C16.24 21.6 15.9067 20.52 15.24 19.72C14.6 18.92 13.7867 18.32 12.8 17.92C11.84 17.52 10.5333 17.0933 8.88 16.64C7.06667 16.16 5.6 15.68 4.48 15.2C3.38667 14.72 2.45333 13.9867 1.68 13C0.933334 11.9867 0.56 10.6133 0.56 8.88C0.56 7.54667 0.906667 6.33333 1.6 5.24C2.32 4.12 3.33333 3.24 4.64 2.6C5.94667 1.96 7.45333 1.64 9.16 1.64C11.64 1.64 13.64 2.25333 15.16 3.48C16.68 4.70666 17.5867 6.21333 17.88 8H15.96C15.8 7.28 15.44 6.54667 14.88 5.8C14.3467 5.05333 13.5733 4.44 12.56 3.96C11.5733 3.45333 10.3867 3.2 9 3.2C7.13333 3.2 5.56 3.72 4.28 4.76C3 5.77333 2.36 7.13333 2.36 8.84C2.36 10.2 2.69333 11.2933 3.36 12.12C4.02667 12.92 4.84 13.5333 5.8 13.96C6.78667 14.36 8.10667 14.7733 9.76 15.2C11.6 15.7067 13.0533 16.2 14.12 16.68C15.2133 17.1333 16.1333 17.8667 16.88 18.88C17.6533 19.8667 18.04 21.2133 18.04 22.92C18.04 24.1733 17.7067 25.36 17.04 26.48C16.3733 27.6 15.3867 28.52 14.08 29.24C12.8 29.9333 11.24 30.28 9.4 30.28ZM33.2684 7.84C35.8284 7.84 37.9218 8.64 39.5484 10.24C41.1751 11.8133 41.9884 14.16 41.9884 17.28V30H40.2284V17.4C40.2284 14.8133 39.5751 12.84 38.2684 11.48C36.9618 10.0933 35.1884 9.4 32.9484 9.4C30.6018 9.4 28.7218 10.1467 27.3084 11.64C25.9218 13.1333 25.2284 15.3467 25.2284 18.28V30H23.4284V0.4H25.2284V12.88C25.8418 11.2533 26.8684 10.0133 28.3084 9.16C29.7484 8.28 31.4018 7.84 33.2684 7.84ZM57.9103 30.32C55.8836 30.32 54.057 29.8667 52.4303 28.96C50.8036 28.0533 49.5236 26.76 48.5903 25.08C47.6836 23.3733 47.2303 21.3867 47.2303 19.12C47.2303 16.88 47.697 14.92 48.6303 13.24C49.5636 11.5333 50.8436 10.24 52.4703 9.36C54.1236 8.45333 55.9636 8 57.9903 8C60.017 8 61.8436 8.45333 63.4703 9.36C65.097 10.24 66.3636 11.52 67.2703 13.2C68.2036 14.88 68.6703 16.8533 68.6703 19.12C68.6703 21.3867 68.2036 23.3733 67.2703 25.08C66.337 26.76 65.0436 28.0533 63.3903 28.96C61.7636 29.8667 59.937 30.32 57.9103 30.32ZM57.9103 28.72C59.4836 28.72 60.9503 28.3733 62.3103 27.68C63.697 26.96 64.8036 25.88 65.6303 24.44C66.457 23 66.8703 21.2267 66.8703 19.12C66.8703 17.04 66.457 15.28 65.6303 13.84C64.8036 12.4 63.7103 11.3333 62.3503 10.64C60.9903 9.92 59.5236 9.56 57.9503 9.56C56.377 9.56 54.9103 9.92 53.5503 10.64C52.217 11.3333 51.137 12.4 50.3103 13.84C49.4836 15.28 49.0703 17.04 49.0703 19.12C49.0703 21.2267 49.4703 23 50.2703 24.44C51.097 25.88 52.177 26.96 53.5103 27.68C54.8703 28.3733 56.337 28.72 57.9103 28.72ZM75.9316 14C76.5449 12.24 77.6516 10.8 79.2516 9.68C80.8782 8.56 82.8382 8 85.1316 8C87.1582 8 88.9582 8.45333 90.5316 9.36C92.1316 10.2667 93.3716 11.56 94.2516 13.24C95.1582 14.92 95.6116 16.88 95.6116 19.12C95.6116 21.36 95.1582 23.3333 94.2516 25.04C93.3716 26.72 92.1316 28.0267 90.5316 28.96C88.9582 29.8667 87.1582 30.32 85.1316 30.32C82.8649 30.32 80.9182 29.76 79.2916 28.64C77.6916 27.4933 76.5716 26.0533 75.9316 24.32V40.24H74.1316V8.28H75.9316V14ZM93.7716 19.12C93.7716 17.1467 93.3982 15.44 92.6516 14C91.9049 12.56 90.8516 11.4667 89.4916 10.72C88.1582 9.94667 86.6116 9.56 84.8516 9.56C83.1716 9.56 81.6516 9.96 80.2916 10.76C78.9316 11.5333 77.8649 12.6533 77.0916 14.12C76.3182 15.56 75.9316 17.2267 75.9316 19.12C75.9316 21.04 76.3182 22.7333 77.0916 24.2C77.8649 25.64 78.9316 26.76 80.2916 27.56C81.6516 28.3333 83.1716 28.72 84.8516 28.72C86.6116 28.72 88.1582 28.3333 89.4916 27.56C90.8516 26.7867 91.9049 25.68 92.6516 24.24C93.3982 22.8 93.7716 21.0933 93.7716 19.12ZM115.766 30L102.846 16.76V30H101.046V1.92H102.846V15.28L115.766 1.92H118.086L104.406 16L118.126 30H115.766ZM121.176 19.12C121.176 16.88 121.616 14.92 122.496 13.24C123.402 11.56 124.642 10.2667 126.216 9.36C127.816 8.45333 129.629 8 131.656 8C133.949 8 135.896 8.56 137.496 9.68C139.096 10.8 140.216 12.2267 140.856 13.96V8.28H142.656V30H140.856V24.28C140.216 26.04 139.082 27.4933 137.456 28.64C135.856 29.76 133.922 30.32 131.656 30.32C129.629 30.32 127.816 29.8667 126.216 28.96C124.642 28.0267 123.402 26.72 122.496 25.04C121.616 23.3333 121.176 21.36 121.176 19.12ZM140.856 19.12C140.856 17.2267 140.456 15.56 139.656 14.12C138.882 12.6533 137.816 11.5333 136.456 10.76C135.096 9.96 133.576 9.56 131.896 9.56C130.136 9.56 128.589 9.94667 127.256 10.72C125.922 11.4667 124.882 12.56 124.136 14C123.389 15.44 123.016 17.1467 123.016 19.12C123.016 21.0933 123.389 22.8 124.136 24.24C124.882 25.68 125.922 26.7867 127.256 27.56C128.616 28.3333 130.162 28.72 131.896 28.72C133.576 28.72 135.096 28.3333 136.456 27.56C137.842 26.76 138.922 25.64 139.696 24.2C140.469 22.7333 140.856 21.04 140.856 19.12ZM151.01 12.76C151.543 11.16 152.49 9.94667 153.85 9.12C155.21 8.26667 156.943 7.84 159.05 7.84V9.72H158.45C156.316 9.72 154.543 10.3333 153.13 11.56C151.716 12.76 151.01 14.7333 151.01 17.48V30H149.21V8.28H151.01V12.76ZM165.874 9.84V24.2C165.874 25.8 166.167 26.9067 166.754 27.52C167.341 28.1067 168.381 28.4 169.874 28.4H172.314V30H169.594C167.701 30 166.301 29.56 165.394 28.68C164.514 27.7733 164.074 26.28 164.074 24.2V9.84H160.794V8.28H164.074V2.76H165.874V8.28H172.314V9.84H165.874Z" fill="white"/>
</svg>
